<?xml version="1.0" encoding="UTF-8" standalone="no"?>
<svg
   xmlns:dc="http://purl.org/dc/elements/1.1/"
   xmlns:cc="http://creativecommons.org/ns#"
   xmlns:rdf="http://www.w3.org/1999/02/22-rdf-syntax-ns#"
   xmlns:svg="http://www.w3.org/2000/svg"
   xmlns="http://www.w3.org/2000/svg"
   xmlns:sodipodi="http://sodipodi.sourceforge.net/DTD/sodipodi-0.dtd"
   xmlns:inkscape="http://www.inkscape.org/namespaces/inkscape"
   width="700"
   height="700"
   viewBox="0 0 700 700"
   version="1.1"
   id="svg9"
   sodipodi:docname="goldman-sachs-logo.svg"
   inkscape:version="0.92.4 (5da689c313, 2019-01-14)"
   inkscape:export-filename="G:\Users\suitedoalex\sites\goldman-sachs-logo-0.png"
   inkscape:export-xdpi="561.73999"
   inkscape:export-ydpi="561.73999">
  <metadata
     id="metadata15">
    <rdf:RDF>
      <cc:Work
         rdf:about="">
        <dc:format>image/svg+xml</dc:format>
        <dc:type
           rdf:resource="http://purl.org/dc/dcmitype/StillImage" />
        <dc:title>Goldman Sachs</dc:title>
      </cc:Work>
    </rdf:RDF>
  </metadata>
  <defs
     id="defs13" />
  <sodipodi:namedview
     pagecolor="#ffffff"
     bordercolor="#666666"
     borderopacity="1"
     objecttolerance="10"
     gridtolerance="10"
     guidetolerance="10"
     inkscape:pageopacity="0"
     inkscape:pageshadow="2"
     inkscape:window-width="1600"
     inkscape:window-height="837"
     id="namedview11"
     showgrid="false"
     inkscape:zoom="0.4609375"
     inkscape:cx="97.30404"
     inkscape:cy="114.93468"
     inkscape:window-x="-8"
     inkscape:window-y="-8"
     inkscape:window-maximized="1"
     inkscape:current-layer="svg9" />
  <title
     id="title2">Goldman Sachs</title>
  <g
     id="logo-40-px"
     style="fill:none;fill-rule:evenodd;stroke:none;stroke-width:1"
     transform="matrix(7.4909056,0,0,7.4909056,110.89406,110.89406)"
     inkscape:export-filename="G:\Users\suitedoalex\sites\goldman-sachs-logo-4.png"
     inkscape:export-xdpi="80.299126"
     inkscape:export-ydpi="80.299126">
    <g
       id="64-px"
       transform="translate(-380,-339)"
       style="fill-rule:nonzero">
      <g
         id="GS_40"
         transform="translate(380,339)">
        <rect
           id="Rectangle"
           x="0"
           y="0"
           width="63.838993"
           height="63.838993"
           style="fill:#7399c6" />
        <path
           d="M 7.7685535,8.9761006 H 11.27044 v 5.5949684 c -1.207547,0.201258 -2.4955972,0.322013 -3.2603771,0.322013 -3.4616352,0 -4.9106918,-2.133334 -4.9106918,-5.7157235 0,-3.8238994 1.8515723,-5.9572327 5.4742138,-5.9572327 0.4830189,0 1.4490571,0.040252 2.5761011,0.281761 V 6.963522 H 10.344654 L 9.8616352,5.6352201 C 9.4188679,4.427673 8.8955975,3.9446541 8.090566,3.9446541 c -1.4893081,0 -2.254088,1.8918239 -2.254088,5.2327044 0,3.4616355 0.4427673,4.9911955 2.254088,4.9911955 0.2012579,0 0.4830189,0 0.8452831,-0.0805 V 10.183648 L 7.7283019,9.4188679 V 8.9761006 Z M 11.069182,24.150943 c 0,2.254088 -1.5295594,3.542139 -4.2666663,3.542139 -0.7647799,0 -1.8515723,-0.120755 -2.8578616,-0.322013 v -4.266667 h 0.8050314 l 0.3220126,0.966038 c 0.7245283,2.254088 1.2880503,2.938365 2.2540881,2.938365 1.0062893,0 1.690566,-0.76478 1.690566,-1.851572 0,-0.845283 -0.4427673,-1.52956 -1.408805,-2.052831 L 5.9572327,22.218868 C 4.6691824,21.534591 3.9849057,20.48805 3.9849057,19.2 c 0,-1.972327 1.5698113,-3.139623 4.2264151,-3.139623 0.6037735,0 1.2880503,0.04025 2.4150942,0.201258 v 3.542139 H 9.8213837 L 9.3383648,18.515723 C 8.8955975,17.267924 8.4528302,16.784906 7.527044,16.784906 c -0.9257861,0 -1.5295597,0.52327 -1.5295597,1.328302 0,0.684276 0.4427673,1.28805 1.3283019,1.81132 l 1.690566,0.925786 c 1.4088048,0.805032 2.0528298,1.851573 2.0528298,3.300629 z m 7.446541,2.616353 0.322013,0.483019 v 0.241509 h -2.535849 l -0.0805,-1.046541 c -0.281761,0.76478 -1.046541,1.247799 -2.012579,1.247799 -1.247799,0 -2.133333,-0.76478 -2.133333,-2.173585 0,-1.408805 0.76478,-2.254088 3.059119,-3.179874 l 1.046541,-0.442768 V 20.72956 c 0,-0.885535 -0.281761,-1.288051 -0.925786,-1.288051 -0.563522,0 -0.925786,0.362265 -1.28805,1.247799 l -0.523271,1.28805 h -0.76478 v -2.656603 c 0.966038,-0.281761 1.972327,-0.483019 2.81761,-0.483019 1.932076,0 2.978617,0.885534 2.978617,2.535849 v 5.393711 z m 1.086793,-16.342139 c 0,2.857862 -1.52956,4.467925 -3.461635,4.467925 -1.932076,0 -3.461636,-1.569812 -3.461636,-4.467925 0,-2.898113 1.52956,-4.4679243 3.461636,-4.4679243 1.932075,0 3.461635,1.6100629 3.461635,4.4679243 z m -3.381132,14.85283 V 22.54088 l -0.362264,0.161007 c -0.966038,0.442767 -1.408806,1.167295 -1.408806,2.415094 0,1.046541 0.281762,1.52956 0.845284,1.52956 0.603773,0.04025 0.925786,-0.563522 0.925786,-1.368554 z m 0.925786,-14.85283 c 0,-3.0591193 -0.281761,-3.8238991 -1.046541,-3.8238991 -0.76478,0 -1.046541,0.7647798 -1.046541,3.8238991 0,3.05912 0.281761,3.8239 1.046541,3.8239 0.76478,0 1.046541,-0.724529 1.046541,-3.8239 z m 8.130817,14.973585 0.523271,0.281761 c -0.483019,1.368554 -1.207547,2.05283 -2.656604,2.05283 -2.133333,0 -3.260377,-1.650314 -3.260377,-4.387421 0,-2.978616 1.328302,-4.508176 3.703144,-4.508176 0.603774,0 1.489309,0.0805 2.173585,0.362264 v 2.81761 h -0.805031 l -0.322013,-1.086792 c -0.362264,-1.207548 -0.684277,-1.489309 -1.127044,-1.489309 -0.684277,0 -1.207547,0.845283 -1.207547,3.944654 0,2.53585 0.362264,3.461636 1.408805,3.461636 0.644025,-0.04025 1.086793,-0.402516 1.569811,-1.449057 z M 23.708176,14.691824 H 20.72956 v -0.24151 l 0.322012,-0.483018 V 4.709434 L 20.72956,4.2264151 V 3.9849057 L 23.345912,3.7836478 V 13.967296 l 0.322013,0.483018 v 0.24151 z m 4.145912,0.201258 c -1.932075,0 -2.978616,-1.569812 -2.978616,-4.548428 0,-2.8981131 1.167295,-4.3874213 3.018868,-4.3874213 0.845283,0 1.368553,0.4025157 1.569811,1.0465409 V 4.709434 L 29.142138,4.2264151 V 3.9849057 L 31.798742,3.7836478 V 13.967296 l 0.322013,0.483018 v 0.24151 h -2.334592 l -0.201257,-1.207547 c -0.24151,0.966037 -0.76478,1.408805 -1.730818,1.408805 z m 5.796226,11.874214 0.322013,0.483019 v 0.241509 h -2.978616 v -0.241509 l 0.322012,-0.483019 V 20.72956 c 0,-0.603774 -0.281761,-1.00629 -0.76478,-1.00629 -0.644025,0 -1.086792,0.603774 -1.086792,1.449057 v 5.594969 l 0.322012,0.483019 v 0.241509 h -2.978616 v -0.241509 l 0.322013,-0.483019 v -9.257862 l -0.322013,-0.483019 v -0.241509 l 2.656604,-0.201258 v 3.300629 c 0.362264,-0.76478 1.207547,-1.086793 1.972327,-1.086793 1.408805,0 2.213836,0.845283 2.213836,2.535849 z m -6.359748,-16.38239 c 0,2.898113 0.281761,3.823899 1.086792,3.823899 0.885535,0 1.086793,-1.247799 1.086793,-3.864151 0,-2.4955974 -0.201258,-3.7031446 -1.086793,-3.7031446 -0.764779,0 -1.086792,0.9257862 -1.086792,3.7433966 z m 16.90566,3.58239 0.322013,0.483018 v 0.24151 h -2.978616 v -0.24151 l 0.322012,-0.483018 V 7.8893082 c 0,-0.563522 -0.241509,-1.0062893 -0.76478,-1.0062893 -0.644025,0 -1.006289,0.6440251 -1.006289,1.4893081 v 5.594969 l 0.322013,0.483018 v 0.24151 h -2.978617 v -0.24151 l 0.322013,-0.483018 V 7.8893082 c 0,-0.563522 -0.24151,-1.0062893 -0.76478,-1.0062893 -0.644025,0 -1.046541,0.6440251 -1.046541,1.4893081 v 5.594969 l 0.322013,0.483018 v 0.24151 H 33.28805 v -0.24151 l 0.322013,-0.483018 V 7.1245283 L 33.28805,6.7220126 V 6.4805031 l 2.334591,-0.281761 h 0.201258 l 0.0805,1.0062893 c 0.322012,-0.7647798 1.127044,-1.2075471 2.05283,-1.2075471 1.006289,0 1.610063,0.4830188 1.932075,1.3283019 0.362264,-0.8050315 1.127044,-1.3283019 2.173585,-1.3283019 1.328302,0 2.05283,0.8050314 2.05283,2.4955975 v 5.4742142 z m -3.260377,10.988679 c 0,1.569811 -0.925786,2.777358 -3.260377,2.777358 -0.563522,0 -1.368554,-0.0805 -2.576101,-0.281761 v -3.059119 h 0.724528 l 0.24151,0.644025 c 0.603773,1.610063 0.966038,2.05283 1.851572,2.05283 0.845283,0 1.28805,-0.402516 1.28805,-1.247799 0,-0.684276 -0.362264,-1.127044 -1.167295,-1.569811 l -1.489308,-0.805031 c -0.966038,-0.523271 -1.408805,-1.247799 -1.408805,-2.213837 0,-1.569811 1.167295,-2.455346 3.179874,-2.455346 0.603773,0 1.328302,0.0805 2.133333,0.24151 v 2.374842 h -0.684276 l -0.362265,-0.845283 c -0.362264,-0.845283 -0.684276,-1.167295 -1.408805,-1.167295 -0.724528,0 -1.127044,0.362264 -1.127044,0.925786 0,0.52327 0.322013,0.845283 1.127044,1.28805 l 1.489308,0.845283 c 0.925787,0.603774 1.449057,1.328302 1.449057,2.495598 z m 10.988679,-10.988679 0.322013,0.483018 v 0.24151 h -2.535849 l -0.0805,-1.046541 c -0.281761,0.76478 -1.046541,1.247799 -2.012579,1.247799 -1.247799,0 -2.133333,-0.76478 -2.133333,-2.173585 0,-1.408805 0.76478,-2.254088 3.059119,-3.1798744 L 49.589937,9.0968554 V 7.9295597 c 0,-0.8855345 -0.281761,-1.2880503 -0.925786,-1.2880503 -0.563522,0 -0.925786,0.3622642 -1.28805,1.2477988 L 46.85283,9.1773585 H 46.08805 V 6.4805031 c 0.966038,-0.281761 1.972327,-0.4830188 2.81761,-0.4830188 1.932076,0 2.978617,0.8855346 2.978617,2.535849 v 5.4339627 z m -2.334591,-1.52956 V 9.7408805 l -0.362264,0.1610063 c -0.966038,0.4427672 -1.408805,1.1672952 -1.408805,2.4150942 0,1.046541 0.281761,1.52956 0.845283,1.52956 0.644025,0 0.925786,-0.603774 0.925786,-1.408805 z m 10.988679,2.012578 v 0.24151 H 57.6 v -0.24151 l 0.322013,-0.483018 V 7.8893082 c 0,-0.6037736 -0.281761,-1.0062893 -0.76478,-1.0062893 -0.644026,0 -1.086793,0.6037735 -1.086793,1.4490566 v 5.5949685 l 0.322013,0.483019 v 0.241509 h -2.978616 v -0.241509 l 0.322012,-0.483019 V 7.0842767 L 53.413837,6.681761 V 6.4402516 l 2.334591,-0.281761 h 0.201257 l 0.0805,1.0465408 c 0.322012,-0.8855345 1.207547,-1.2075471 2.05283,-1.2075471 1.408805,0 2.213836,0.845283 2.213836,2.535849 v 5.4339627 z"
           id="Shape"
           inkscape:connector-curvature="0"
           style="fill:#ffffff" />
      </g>
    </g>
  </g>
</svg>
